@startuml

title Bug tracker model diagram

class User {
    - _id: string
    - name: string
    - email: string
    - password: string
    - role: string
    - bugs: Bug[]
    - created_at: Date
    - updated_at: Date
    + comparePassword(password: string, cb: fn): boolean
    + getUserById(id: number): User
    + addBug(bug: Bug): boolean
    + removeBug(bug: Bug): boolean
}

class Bug {
    - _id: string
    - title: string
    - description: string
    - status: string
    - assignedTo: User
    - priority: string
    - created_by: User
    - created_at: Date
    - updated_at: Date
    + getAllBugs(): Bug[]
    + getBugById(id: number): Bug
    + updateBugById(id: number, bug: Bug): boolean
    + deleteBugById(id: number): boolean
    + assignTo(user: User): boolean
}

class Project {
    - _id: string
    - name: string
    - description: string
    - bugs: Bug[]
    - created_at: Date
    - updated_at: Date
    + getAllProjects(): Project[]
    + getProjectById(id: number): Project
}

User "1" -- "0..*" Bug : has

Project "1" -- "1..*" Bug : has

User "1..*" -- "1" Project : has


@enduml
